<?xml version="1.0" encoding="UTF-8"?>
<svg width="19px" height="18px" viewBox="0 0 19 18" version="1.1" xmlns="http://www.w3.org/2000/svg" xmlns:xlink="http://www.w3.org/1999/xlink" fill="currentColor" fill-rule="evenodd" clip-rule="evenodd">
    <g id="1-1-1" transform="translate(-27.000000, -847.000000)">
        <g id="Bottom-Navigation---M" transform="translate(0.000000, 834.000000)">
            <g id="Tab-1" transform="translate(0.000000, 10.000000)">
                <g id="ðŸ“Trailing-icon" transform="translate(24.467532, 0.000000)">
                    <path d="M21,9 L21,3 L12.984375,3 L12.984375,9 L21,9 Z M11.015625,12.984375 L11.015625,3 L3,3 L3,12.984375 L11.015625,12.984375 Z M18.984375,6.984375 L15,6.984375 L15,5.015625 L18.984375,5.015625 L18.984375,6.984375 Z M9,11.015625 L5.015625,11.015625 L5.015625,5.015625 L9,5.015625 L9,11.015625 Z M21,21 L21,11.015625 L12.984375,11.015625 L12.984375,21 L21,21 Z M18.984375,18.984375 L15,18.984375 L15,12.984375 L18.984375,12.984375 L18.984375,18.984375 Z M11.015625,21 L11.015625,15 L3,15 L3,21 L11.015625,21 Z M9,18.984375 L5.015625,18.984375 L5.015625,17.015625 L9,17.015625 L9,18.984375 Z"></path>
                </g>
            </g>
        </g>
    </g>
</svg>