<?xml version="1.0" encoding="UTF-8"?>
<svg width="21px" height="20px" viewBox="0 0 21 20" version="1.1" xmlns="http://www.w3.org/2000/svg" xmlns:xlink="http://www.w3.org/1999/xlink" fill="currentColor" fill-rule="evenodd" clip-rule="evenodd">
    <g id="1-1-1" transform="translate(-320.000000, -18.000000)">
        <g id="Icon" transform="translate(320.000000, 16.000000)">
            <path d="M18.984375,17.015625 L18.984375,15 L6.984375,15 L8.109375,12.984375 L15.5625,12.984375 C16.3125,12.984375 16.96875,12.609375 17.296875,11.953125 L20.859375,5.484375 C21.234375,4.828125 20.765625,3.984375 20.015625,3.984375 L5.203125,3.984375 L4.265625,2.015625 L0.984375,2.015625 L0.984375,3.984375 L3,3.984375 L6.609375,11.578125 L5.25,14.015625 C4.5,15.375 5.484375,17.015625 6.984375,17.015625 L18.984375,17.015625 Z M15.5625,11.015625 L8.53125,11.015625 L6.140625,6 L18.328125,6 L15.5625,11.015625 Z M6.984375,21.984375 C8.109375,21.984375 9,21.09375 9,20.015625 C9,18.890625 8.109375,18 6.984375,18 C5.90625,18 5.015625,18.890625 5.015625,20.015625 C5.015625,21.09375 5.90625,21.984375 6.984375,21.984375 Z M17.015625,21.984375 C18.09375,21.984375 18.984375,21.09375 18.984375,20.015625 C18.984375,18.890625 18.09375,18 17.015625,18 C15.890625,18 15,18.890625 15,20.015625 C15,21.09375 15.890625,21.984375 17.015625,21.984375 Z"></path>
        </g>
    </g>
</svg>