<?xml version="1.0" encoding="UTF-8"?>
<svg width="18px" height="18px" viewBox="0 0 18 18" version="1.1" xmlns="http://www.w3.org/2000/svg" xmlns:xlink="http://www.w3.org/1999/xlink">
    <title>Icon 48</title>
    <g id="Work-In-Progress" stroke="none" stroke-width="1" fill="none" fill-rule="evenodd">
        <g id="3-1-1" transform="translate(-91.000000, -257.000000)">
            <g id="Group-7" transform="translate(16.000000, 168.000000)">
                <g id="Icon-48" transform="translate(74.000000, 88.000000)">
                    <rect id="Path" x="0" y="0" width="20" height="20"></rect>
                    <path d="M10,18.3203125 C14.609375,18.3203125 18.3203125,14.609375 18.3203125,10 C18.3203125,5.390625 14.609375,1.6796875 10,1.6796875 C5.390625,1.6796875 1.6796875,5.390625 1.6796875,10 C1.6796875,14.609375 5.390625,18.3203125 10,18.3203125 Z M10,16.6796875 C6.328125,16.6796875 3.3203125,13.671875 3.3203125,10 C3.3203125,6.328125 6.328125,3.3203125 10,3.3203125 C13.671875,3.3203125 16.6796875,6.328125 16.6796875,10 C16.6796875,13.671875 13.671875,16.6796875 10,16.6796875 Z M13.5546875,13.4765625 L14.1796875,12.421875 L10.4296875,10.1953125 L10.4296875,5.8203125 L9.1796875,5.8203125 L9.1796875,10.8203125 L13.5546875,13.4765625 Z" id="s" fill="#7A6E77" fill-rule="nonzero"></path>
                </g>
            </g>
        </g>
    </g>
</svg>