<?xml version="1.0" encoding="UTF-8"?>
<svg width="21px" height="20px" viewBox="0 0 21 20" version="1.1" xmlns="http://www.w3.org/2000/svg" xmlns:xlink="http://www.w3.org/1999/xlink" fill="currentColor" fill-rule="evenodd" clip-rule="evenodd">
    <g id="1-1-1" transform="translate(-98.000000, -846.000000)">
        <g id="Bottom-Navigation---M" transform="translate(0.000000, 834.000000)">
            <g id="Tab-2" transform="translate(72.000000, 10.000000)">
                <g id="ðŸ“Trailing-icon" transform="translate(24.467532, 0.000000)">
                    <path d="M12,21.984375 C14.75,21.984375 17.1015625,21.0078125 19.0546875,19.0546875 C21.0078125,17.1015625 21.984375,14.75 21.984375,12 C21.984375,9.25 21.0078125,6.8984375 19.0546875,4.9453125 C17.1015625,2.9921875 14.75,2.015625 12,2.015625 C9.25,2.015625 6.890625,3 4.921875,4.96875 C2.984375,6.90625 2.015625,9.25 2.015625,12 C2.015625,14.75 2.9921875,17.1015625 4.9453125,19.0546875 C6.8984375,21.0078125 9.25,21.984375 12,21.984375 Z M6,18 L9.796875,9.796875 L18,6 L14.203125,14.203125 L6,18 Z M12,13.078125 C12.3125,13.078125 12.5703125,12.9765625 12.7734375,12.7734375 C12.9765625,12.5703125 13.078125,12.3125 13.078125,12 C13.078125,11.6875 12.9765625,11.4296875 12.7734375,11.2265625 C12.5703125,11.0234375 12.3125,10.921875 12,10.921875 C11.6875,10.921875 11.421875,11.03125 11.203125,11.25 C11.015625,11.4375 10.921875,11.6875 10.921875,12 C10.921875,12.3125 11.0234375,12.5703125 11.2265625,12.7734375 C11.4296875,12.9765625 11.6875,13.078125 12,13.078125 Z"></path>
                </g>
            </g>
        </g>
    </g>
</svg>