<?xml version="1.0" encoding="UTF-8"?>
<svg width="20px" height="20px" viewBox="0 0 20 20" version="1.1" xmlns="http://www.w3.org/2000/svg" xmlns:xlink="http://www.w3.org/1999/xlink">
    <title>Icon 28</title>
    <g id="Work-In-Progress" stroke="none" stroke-width="1" fill="none" fill-rule="evenodd">
        <g id="2-1-1" transform="translate(-172.000000, -350.000000)">
            <g id="Group-5" transform="translate(0.000000, 234.000000)">
                <g id="Group" transform="translate(16.000000, 64.000000)">
                    <g transform="translate(156.000000, 52.000000)" id="Icon-28">
                        <rect id="Path" x="0" y="0" width="20" height="20"></rect>
                        <path d="M10,19.140625 C10.4296875,19.140625 10.859375,18.984375 11.171875,18.671875 L18.671875,11.171875 C19.3359375,10.546875 19.3359375,9.4921875 18.7109375,8.828125 L11.171875,1.328125 C10.546875,0.703125 9.453125,0.6640625 8.828125,1.328125 L1.328125,8.828125 C0.6640625,9.453125 0.6640625,10.5078125 1.328125,11.171875 L8.828125,18.671875 C9.140625,18.984375 9.5703125,19.140625 10,19.140625 Z M10,17.5 L2.5,10 L10,2.5 L17.5,10 L10,17.5 Z M8.3203125,12.5 L8.3203125,10 L11.6796875,10 L11.6796875,12.0703125 L14.5703125,9.1796875 L11.6796875,6.25 L11.6796875,8.3203125 L7.5,8.3203125 C7.03125,8.3203125 6.6796875,8.7109375 6.6796875,9.1796875 L6.6796875,12.5 L8.3203125,12.5 Z" id="directions" fill="#7A6E77" fill-rule="nonzero"></path>
                    </g>
                </g>
            </g>
        </g>
    </g>
</svg>