<?xml version="1.0" encoding="UTF-8"?>
<svg width="18px" height="16px" viewBox="0 0 18 16" version="1.1" xmlns="http://www.w3.org/2000/svg" xmlns:xlink="http://www.w3.org/1999/xlink">
    <title>Icon 31</title>
    <defs>
        <filter id="filter-1">
            <feColorMatrix in="SourceGraphic" type="matrix" values="0 0 0 0 0.921569 0 0 0 0 0.349020 0 0 0 0 0.372549 0 0 0 1.000000 0"></feColorMatrix>
        </filter>
    </defs>
    <g id="Work-In-Progress" stroke="none" stroke-width="1" fill="none" fill-rule="evenodd">
        <g id="2-1-1" transform="translate(-33.000000, -728.000000)">
            <g id="Card-/-Product-/-Mobile-/-Default-@Card.L" transform="translate(16.000000, 526.000000)">
                <g id="Icon-31" transform="translate(16.000000, 200.000000)" filter="url(#filter-1)">
                    <g>
                        <rect id="Path" x="0" y="0" width="20" height="20"></rect>
                        <path d="M6.4308493,2.50694444 C4.03789948,2.5133215 2.02332399,4.29876507 1.72946041,6.67361111 C1.68609759,6.87437763 1.66513611,7.0793343 1.66675358,7.28472222 C1.66675358,10 3.75029374,12.4444444 5.72946041,14.2708333 C6.95936212,15.3950323 8.28629208,16.4082398 9.69473819,17.2986111 L10.0002937,17.4930556 L10.3058493,17.2986111 C11.7142954,16.4082398 13.0412253,15.3950323 14.2711271,14.2708333 C16.2502937,12.4444444 18.3337991,10 18.3337991,7.27083333 C18.3352808,7.067749 18.3143183,6.86511186 18.2711271,6.66666667 C17.9743535,4.29335303 15.9615164,2.50945017 13.5697382,2.5 C12.1612571,2.53588405 10.8464727,3.21373985 10.0002937,4.34027778 C9.15269791,3.21635597 7.83813302,2.54117088 6.4308493,2.50694444 Z" id="Shape" fill="#7A6E77" fill-rule="nonzero"></path>
                    </g>
                </g>
            </g>
        </g>
    </g>
</svg>