<?xml version="1.0" encoding="UTF-8"?>
<svg width="18px" height="16px" viewBox="0 0 18 16" version="1.1" xmlns="http://www.w3.org/2000/svg" xmlns:xlink="http://www.w3.org/1999/xlink">
    <title>Icon 30</title>
    <defs>
        <filter id="filter-1">
            <feColorMatrix in="SourceGraphic" type="matrix" values="0 0 0 0 0.478431 0 0 0 0 0.431373 0 0 0 0 0.466667 0 0 0 1.000000 0"></feColorMatrix>
        </filter>
    </defs>
    <g id="Work-In-Progress" stroke="none" stroke-width="1" fill="none" fill-rule="evenodd">
        <g id="2-1-1" transform="translate(-33.000000, -972.000000)">
            <g id="Products" transform="translate(16.000000, 770.000000)">
                <g id="Icon-30" transform="translate(16.000000, 200.000000)" filter="url(#filter-1)">
                    <g>
                        <rect id="Path" x="0" y="0" width="20" height="20"></rect>
                        <path d="M6.4308493,2.50694444 C4.03789948,2.5133215 2.02332399,4.29876507 1.72946041,6.67361111 C1.68609759,6.87437763 1.66513611,7.0793343 1.66675358,7.28472222 C1.66675358,10 3.75029374,12.4444444 5.72946041,14.2708333 C6.95936212,15.3950323 8.28629208,16.4082398 9.69473819,17.2986111 L10.0002937,17.4930556 L10.3058493,17.2986111 C11.7142954,16.4082398 13.0412253,15.3950323 14.2711271,14.2708333 C16.2502937,12.4444444 18.3337991,10 18.3337991,7.27083333 C18.3352808,7.067749 18.3143183,6.86511186 18.2711271,6.66666667 C17.9743535,4.29335303 15.9615164,2.50945017 13.5697382,2.5 C12.1612571,2.53588405 10.8464727,3.21373985 10.0002937,4.34027778 C9.15269791,3.21635597 7.83813302,2.54117088 6.4308493,2.50694444 Z M6.4308493,3.70130131 C7.6903,3.69837481 8.85543923,4.36832987 9.48640485,5.45833333 L10.0002937,6.31944444 L10.5141826,5.45833333 C11.2873053,4.14422569 12.8134344,3.47084247 14.3052595,3.78557349 C15.7970845,4.10030451 16.9211303,5.33279636 17.097516,6.84722222 L17.097516,6.89583333 C17.1273533,7.02325474 17.141348,7.15387196 17.1391826,7.28472222 C17.1391826,9.36805556 15.347516,11.6736111 13.4586271,13.4097222 C12.3897733,14.4042388 11.226914,15.2926633 9.98640485,16.0625 C8.74680527,15.2913456 7.58406858,14.4030148 6.51418263,13.4097222 C4.63223819,11.6736111 2.84057152,9.36805556 2.84057152,7.28472222 C2.83758657,7.15383626 2.85159231,7.02311599 2.88223819,6.89583333 L2.88223819,6.84027778 C3.09423355,5.0435259 4.62165622,3.69245927 6.4308493,3.70130131 Z" id="Shape" fill="#7A6E77" fill-rule="nonzero"></path>
                    </g>
                </g>
            </g>
        </g>
    </g>
</svg>