<?xml version="1.0" encoding="UTF-8"?>
<svg width="18px" height="13px" viewBox="0 0 18 13" version="1.1" xmlns="http://www.w3.org/2000/svg" xmlns:xlink="http://www.w3.org/1999/xlink" fill="currentColor" fill-rule="evenodd" clip-rule="evenodd">
    <g id="Icon-51" transform="translate(-3.000000, -5.000000)">
        <path d="M21,18 L21,5.015625 L3.984375,5.015625 L3.984375,18 L21,18 Z M14.015625,10.5 L11.015625,10.5 L11.015625,6.984375 L14.015625,6.984375 L14.015625,10.5 Z M9,10.5 L6,10.5 L6,6.984375 L9,6.984375 L9,10.5 Z M18.984375,10.5 L15.984375,10.5 L15.984375,6.984375 L18.984375,6.984375 L18.984375,10.5 Z M9,15.984375 L6,15.984375 L6,12.515625 L9,12.515625 L9,15.984375 Z M14.015625,15.984375 L11.015625,15.984375 L11.015625,12.515625 L14.015625,12.515625 L14.015625,15.984375 Z M18.984375,15.984375 L15.984375,15.984375 L15.984375,12.515625 L18.984375,12.515625 L18.984375,15.984375 Z"></path>
    </g>
</svg>