<?xml version="1.0" encoding="UTF-8"?>
<svg width="18px" height="18px" viewBox="0 0 18 18" version="1.1" xmlns="http://www.w3.org/2000/svg" xmlns:xlink="http://www.w3.org/1999/xlink" fill="currentColor" fill-rule="evenodd" clip-rule="evenodd">
    <g id="Icon-50" transform="translate(-3.000000, -3.000000)">
        <path d="M15,21 L20.625,19.078125 C20.859375,19.03125 21,18.84375 21,18.609375 L21,3.515625 C21,3.234375 20.765625,3 20.484375,3 L20.34375,3.046875 L15,5.109375 L9,3 L3.375,4.921875 C3.140625,4.96875 3,5.15625 3,5.390625 L3,20.484375 C3,20.765625 3.234375,21 3.515625,21 L3.65625,20.953125 L9,18.890625 L15,21 Z M5.015625,18.328125 L5.015625,6.46875 L8.015625,5.4375 L8.015625,17.15625 L5.015625,18.328125 Z M14.015625,18.515625 L9.984375,17.109375 L9.984375,5.484375 L14.015625,6.890625 L14.015625,18.515625 Z M15.984375,18.5625 L15.984375,6.84375 L18.984375,5.71875 L18.984375,17.53125 L15.984375,18.5625 Z"></path>
    </g>
</svg>