<?xml version="1.0" encoding="UTF-8"?>
<svg width="12px" height="18px" viewBox="0 0 12 18" version="1.1" xmlns="http://www.w3.org/2000/svg" xmlns:xlink="http://www.w3.org/1999/xlink">
    <title>Icon 45</title>
    <g id="Work-In-Progress" stroke="none" stroke-width="1" fill="none" fill-rule="evenodd">
        <g id="3-1-1" transform="translate(-94.000000, -289.000000)">
            <g id="Group-7" transform="translate(16.000000, 168.000000)">
                <g id="Icon-45" transform="translate(74.000000, 120.000000)">
                    <rect id="Path" x="0" y="0" width="20" height="20"></rect>
                    <path d="M10,18.3203125 C10,18.3203125 15.8203125,11.875 15.8203125,7.5 C15.8203125,4.2578125 13.2421875,1.6796875 10,1.6796875 C6.7578125,1.6796875 4.1796875,4.2578125 4.1796875,7.5 C4.1796875,11.875 10,18.3203125 10,18.3203125 Z M10,15.7421875 C8.28125,13.515625 5.8203125,9.8828125 5.8203125,7.5 C5.8203125,5.1953125 7.6953125,3.3203125 10,3.3203125 C12.3046875,3.3203125 14.1796875,5.1953125 14.1796875,7.5 C14.1796875,9.8828125 11.7578125,13.4765625 10,15.7421875 Z M10,9.5703125 C11.1328125,9.5703125 12.0703125,8.6328125 12.0703125,7.5 C12.0703125,6.3671875 11.1328125,5.4296875 10,5.4296875 C8.8671875,5.4296875 7.9296875,6.3671875 7.9296875,7.5 C7.9296875,8.6328125 8.8671875,9.5703125 10,9.5703125 Z" id="location_on" fill="#7A6E77" fill-rule="nonzero"></path>
                </g>
            </g>
        </g>
    </g>
</svg>