<?xml version="1.0" encoding="UTF-8"?>
<svg width="20px" height="20px" viewBox="0 0 20 20" version="1.1" xmlns="http://www.w3.org/2000/svg" xmlns:xlink="http://www.w3.org/1999/xlink">
    <title>Icon 4</title>
    <defs>
        <filter id="filter-1">
            <feColorMatrix in="SourceGraphic" type="matrix" values="0 0 0 0 0.478431 0 0 0 0 0.431373 0 0 0 0 0.466667 0 0 0 1.000000 0"></feColorMatrix>
        </filter>
    </defs>
    <g id="Work-In-Progress" stroke="none" stroke-width="1" fill="none" fill-rule="evenodd">
        <g id="1-1-1" transform="translate(-282.000000, -18.000000)">
            <g id="Icon" transform="translate(280.000000, 16.000000)" filter="url(#filter-1)">
                <g>
                    <rect id="Path" x="0" y="0" width="24" height="24"></rect>
                    <path d="M21.984375,6.984375 L21.984375,2.015625 L17.015625,2.015625 L17.015625,3.984375 L20.015625,3.984375 L20.015625,6.984375 L21.984375,6.984375 Z M3.984375,6.984375 L3.984375,3.984375 L6.984375,3.984375 L6.984375,2.015625 L2.015625,2.015625 L2.015625,6.984375 L3.984375,6.984375 Z M11.015625,11.015625 L11.015625,5.015625 L5.015625,5.015625 L5.015625,11.015625 L11.015625,11.015625 Z M18.984375,11.015625 L18.984375,5.015625 L12.984375,5.015625 L12.984375,11.015625 L18.984375,11.015625 Z M9.515625,9.515625 L6.515625,9.515625 L6.515625,6.515625 L9.515625,6.515625 L9.515625,9.515625 Z M17.484375,9.515625 L14.484375,9.515625 L14.484375,6.515625 L17.484375,6.515625 L17.484375,9.515625 Z M11.015625,18.984375 L11.015625,12.984375 L5.015625,12.984375 L5.015625,18.984375 L11.015625,18.984375 Z M14.484375,14.484375 L14.484375,12.984375 L12.984375,12.984375 L12.984375,14.484375 L14.484375,14.484375 Z M17.484375,14.484375 L17.484375,12.984375 L15.984375,12.984375 L15.984375,14.484375 L17.484375,14.484375 Z M9.515625,17.484375 L6.515625,17.484375 L6.515625,14.484375 L9.515625,14.484375 L9.515625,17.484375 Z M15.984375,15.984375 L15.984375,14.484375 L14.484375,14.484375 L14.484375,15.984375 L15.984375,15.984375 Z M18.984375,15.984375 L18.984375,14.484375 L17.484375,14.484375 L17.484375,15.984375 L18.984375,15.984375 Z M14.484375,17.484375 L14.484375,15.984375 L12.984375,15.984375 L12.984375,17.484375 L14.484375,17.484375 Z M17.484375,17.484375 L17.484375,15.984375 L15.984375,15.984375 L15.984375,17.484375 L17.484375,17.484375 Z M21.984375,21.984375 L21.984375,17.015625 L20.015625,17.015625 L20.015625,20.015625 L17.015625,20.015625 L17.015625,21.984375 L21.984375,21.984375 Z M6.984375,21.984375 L6.984375,20.015625 L3.984375,20.015625 L3.984375,17.015625 L2.015625,17.015625 L2.015625,21.984375 L6.984375,21.984375 Z M15.984375,18.984375 L15.984375,17.484375 L14.484375,17.484375 L14.484375,18.984375 L15.984375,18.984375 Z M18.984375,18.984375 L18.984375,17.484375 L17.484375,17.484375 L17.484375,18.984375 L18.984375,18.984375 Z" id="qr_code_scanner" fill="#7A6E77" fill-rule="nonzero"></path>
                </g>
            </g>
        </g>
    </g>
</svg>