<?xml version="1.0" encoding="UTF-8"?>
<svg width="18px" height="20px" viewBox="0 0 18 20" version="1.1" xmlns="http://www.w3.org/2000/svg" xmlns:xlink="http://www.w3.org/1999/xlink">
    <title>Icon 34</title>
    <g id="Work-In-Progress" stroke="none" stroke-width="1" fill="none" fill-rule="evenodd">
        <g id="4-1-1" transform="translate(-323.000000, -264.000000)">
            <g id="Group-5" transform="translate(0.000000, 234.000000)">
                <g id="Group-2" transform="translate(280.000000, 28.000000)">
                    <g id="Group" transform="translate(40.000000, 0.000000)">
                        <rect id="Path" x="0" y="0" width="24" height="24"></rect>
                        <path d="M18,21.9375 C19.59375,21.9375 20.90625,20.625 20.90625,18.984375 C20.90625,17.390625 19.59375,16.078125 18,16.078125 C17.25,16.078125 16.546875,16.359375 16.03125,16.828125 L8.90625,12.703125 C8.953125,12.46875 9,12.234375 9,12 C9,11.765625 8.953125,11.53125 8.90625,11.296875 L15.9375,7.171875 C16.5,7.6875 17.203125,8.015625 18,8.015625 C19.640625,8.015625 21,6.65625 21,5.015625 C21,3.328125 19.640625,2.015625 18,2.015625 C16.359375,2.015625 15,3.328125 15,5.015625 C15,5.25 15.046875,5.484375 15.09375,5.71875 L8.0625,9.796875 C7.5,9.328125 6.796875,9 6,9 C4.359375,9 3,10.359375 3,12 C3,13.640625 4.359375,15 6,15 C6.796875,15 7.5,14.671875 8.0625,14.203125 L15.140625,18.328125 C15.09375,18.5625 15.09375,18.796875 15.09375,18.984375 C15.09375,20.625 16.40625,21.9375 18,21.9375 Z M18,6 C17.4375,6 17.015625,5.53125 17.015625,5.015625 C17.015625,4.453125 17.4375,3.984375 18,3.984375 C18.5625,3.984375 18.984375,4.453125 18.984375,5.015625 C18.984375,5.53125 18.5625,6 18,6 Z M6,12.984375 C5.4375,12.984375 5.015625,12.5625 5.015625,12 C5.015625,11.4375 5.4375,11.015625 6,11.015625 C6.5625,11.015625 6.984375,11.4375 6.984375,12 C6.984375,12.5625 6.5625,12.984375 6,12.984375 Z M18,20.015625 C17.4375,20.015625 17.015625,19.546875 17.015625,19.03125 C17.015625,18.46875 17.4375,18 18,18 C18.5625,18 18.984375,18.46875 18.984375,19.03125 C18.984375,19.546875 18.5625,20.015625 18,20.015625 Z" id="s" fill="#7A6E77" fill-rule="nonzero"></path>
                    </g>
                </g>
            </g>
        </g>
    </g>
</svg>