<?xml version="1.0" encoding="UTF-8"?>
<svg width="21px" height="20px" viewBox="0 0 21 20" version="1.1" xmlns="http://www.w3.org/2000/svg" fill="currentColor" fill-rule="evenodd" clip-rule="evenodd">
    <g id="1-1-1" transform="translate(-314.000000, -846.000000)">
        <g id="Bottom-Navigation---M" transform="translate(0.000000, 834.000000)">
            <g id="Tab-5" transform="translate(288.000000, 10.000000)">
                <g id="ðŸ“Trailing-icon" transform="translate(24.467532, 0.000000)">
                    <path d="M12,21.984375 C17.53125,21.984375 21.984375,17.53125 21.984375,12 C21.984375,6.46875 17.53125,2.015625 12,2.015625 C6.46875,2.015625 2.015625,6.46875 2.015625,12 C2.015625,17.53125 6.46875,21.984375 12,21.984375 Z M18.375,16.828125 C16.921875,15.09375 13.453125,14.484375 12,14.484375 C10.546875,14.484375 7.078125,15.09375 5.625,16.828125 C4.640625,15.46875 3.984375,13.828125 3.984375,12 C3.984375,7.59375 7.59375,3.984375 12,3.984375 C16.40625,3.984375 20.015625,7.59375 20.015625,12 C20.015625,13.828125 19.359375,15.46875 18.375,16.828125 Z M12,12.984375 C13.921875,12.984375 15.515625,11.4375 15.515625,9.515625 C15.515625,7.546875 13.921875,6 12,6 C10.078125,6 8.484375,7.546875 8.484375,9.515625 C8.484375,11.4375 10.078125,12.984375 12,12.984375 Z M12,11.015625 C11.15625,11.015625 10.5,10.3125 10.5,9.515625 C10.5,8.671875 11.15625,8.015625 12,8.015625 C12.84375,8.015625 13.5,8.671875 13.5,9.515625 C13.5,10.3125 12.84375,11.015625 12,11.015625 Z M12,20.015625 C10.125,20.015625 8.4375,19.359375 7.078125,18.28125 C7.5,17.390625 10.125,16.5 12,16.5 C13.875,16.5 16.5,17.390625 16.921875,18.28125 C15.5625,19.359375 13.875,20.015625 12,20.015625 Z"></path>
                </g>
            </g>
        </g>
    </g>
</svg>