<?xml version="1.0" encoding="UTF-8"?>
<svg width="21px" height="21px" viewBox="0 0 21 21" version="1.1" xmlns="http://www.w3.org/2000/svg" xmlns:xlink="http://www.w3.org/1999/xlink">
    <title>Icon 7</title>
    <defs>
        <filter id="filter-1">
            <feColorMatrix in="SourceGraphic" type="matrix" values="0 0 0 0 0.478431 0 0 0 0 0.431373 0 0 0 0 0.466667 0 0 0 1.000000 0"></feColorMatrix>
        </filter>
    </defs>
    <g id="Work-In-Progress" stroke="none" stroke-width="1" fill="none" fill-rule="evenodd">
        <g id="1-1-1" transform="translate(-170.000000, -846.000000)">
            <g id="Bottom-Navigation---M" transform="translate(0.000000, 834.000000)">
                <g id="Tab-3" transform="translate(144.000000, 10.000000)">
                    <g id="ðŸ“Trailing-icon" transform="translate(24.467532, 0.000000)" filter="url(#filter-1)">
                        <g>
                            <rect id="Path" x="0" y="0" width="24" height="24"></rect>
                            <path d="M12,22.03125 C17.53125,22.03125 21.984375,17.53125 21.984375,12 C21.984375,6.46875 17.53125,2.015625 12,2.015625 C6.46875,2.015625 1.96875,6.46875 1.96875,12 C1.96875,17.53125 6.46875,22.03125 12,22.03125 Z M11.484375,19.96875 C9.234375,19.828125 7.21875,18.75 5.859375,17.109375 C6.515625,16.59375 8.109375,16.03125 9.515625,16.03125 L9.75,16.03125 L9.75,16.03125 C9.984375,15.375 10.40625,14.71875 11.015625,14.15625 C10.453125,14.0625 9.9375,14.015625 9.515625,14.015625 C8.203125,14.015625 6.09375,14.4375 4.78125,15.421875 C4.265625,14.390625 3.984375,13.21875 3.984375,12 C3.984375,7.59375 7.59375,3.984375 12,3.984375 C16.40625,3.984375 19.96875,7.59375 19.96875,12 C19.96875,13.21875 19.734375,14.34375 19.21875,15.375 C18.234375,14.765625 16.875,14.484375 15.984375,14.484375 C14.484375,14.484375 11.484375,15.328125 11.484375,17.203125 L11.484375,19.96875 Z M9.515625,12.984375 C11.15625,12.984375 12.515625,11.671875 12.515625,9.984375 C12.515625,8.34375 11.15625,6.984375 9.515625,6.984375 C7.828125,6.984375 6.515625,8.34375 6.515625,9.984375 C6.515625,11.671875 7.828125,12.984375 9.515625,12.984375 Z M9.515625,11.015625 C8.953125,11.015625 8.484375,10.546875 8.484375,9.984375 C8.484375,9.46875 8.953125,9 9.515625,9 C10.03125,9 10.5,9.46875 10.5,9.984375 C10.5,10.546875 10.03125,11.015625 9.515625,11.015625 Z M15.984375,12.984375 C17.109375,12.984375 18,12.09375 18,11.015625 C18,9.890625 17.109375,9 15.984375,9 C14.90625,9 13.96875,9.890625 14.015625,11.015625 C14.015625,12.09375 14.90625,12.984375 15.984375,12.984375 Z" id="s" fill="#7A6E77" fill-rule="nonzero"></path>
                        </g>
                    </g>
                </g>
            </g>
        </g>
    </g>
</svg>